#!OML:ASF H:\Male1\Project 1\Capture day 1\Session 1\Male1.ASF
:FULLY-SPECIFIED
:DEGREES
206
root 1.56763 14.9491 2.92774 21.4704 -79.1717 -25.2541
lowerback 12.3074 1.65698 3.5966
upperback 10.7468 1.89841 0.759497
thorax 4.54881 0.908466 -1.38681
lowerneck -7.32935 3.71904 9.09941
upperneck 16.6589 4.17959 -3.41173
head 6.55202 2.24123 -2.26836
rclavicle 1.99779e-014 -1.23246e-014
rhumerus -19.2757 4.28943 -86.0104
rradius 32.9452
rwrist -18.9597
rhand -17.5893 -1.19377
rfingers 7.12502
rthumb 8.6667 -30.9959
lclavicle 1.99779e-014 -1.23246e-014
lhumerus -20.9968 0.614568 86.5773
lradius 45.6911
lwrist 35.4231
lhand -18.7954 24.7969
lfingers 7.12502
lthumb 7.50265 54.6438
rfemur -6.19288 6.44522 31.102
rtibia 33.3073
rfoot -23.7634 -17.3895
rtoes -24.02
lfemur -32.8781 -0.0912412 -14.3079
ltibia 56.5503
lfoot -13.7359 15.5687
ltoes -8.89642
207
root 1.28643 14.9532 3.00171 24.5608 -79.5332 -28.1291
lowerback 12.3824 1.72761 3.72524
upperback 10.8791 1.98606 0.690941
thorax 4.66769 0.959472 -1.53699
lowerneck -7.17166 3.83911 9.30528
upperneck 16.3257 4.3517 -3.53435
head 6.43738 2.3257 -2.32844
rclavicle -1.61016e-014 1.05356e-014
rhumerus -18.2566 4.956 -86.3408
rradius 33.4581
rwrist -19.2866
rhand -17.6081 -1.27147
rfingers 7.12502
rthumb 8.64852 -31.0743
lclavicle -1.61016e-014 1.05356e-014
lhumerus -20.9931 0.837722 86.2041
lradius 45.8113
lwrist 35.7899
lhand -18.7322 24.9917
lfingers 7.12502
lthumb 7.56369 54.8364
rfemur -4.65045 6.62914 31.505
rtibia 32.2467
rfoot -23.9961 -17.271
rtoes -24.1288
lfemur -33.4824 -1.19247 -13.2571
ltibia 51.4231
lfoot -13.2875 16.8293
ltoes -7.70061
208
root 1.00762 14.9495 3.078 28.707 -79.8172 -32.1014
lowerback 12.5033 1.79494 3.97973
upperback 11.0134 2.07792 0.669289
thorax 4.77045 1.01774 -1.70982
lowerneck -7.0294 3.96636 9.50764
upperneck 16.0054 4.53471 -3.6695
head 6.33129 2.41433 -2.39104
rclavicle 1.60022e-014 2.34566e-014
rhumerus -17.2122 5.57421 -86.6566
rradius 33.9174
rwrist -19.5771
rhand -17.5971 -1.4142
rfingers 7.12502
rthumb 8.65914 -31.2166
lclavicle 1.60022e-014 2.34566e-014
lhumerus -20.8948 0.931575 85.8419
lradius 45.9114
lwrist 36.156
lhand -18.537 25.1427
lfingers 7.12502
lthumb 7.75206 54.9806
rfemur -3.08481 6.7521 32.0464
rtibia 31.1603
rfoot -24.1001 -17.1399
rtoes -24.224
lfemur -33.8143 -2.55123 -11.7966
ltibia 46.2286
lfoot -12.9744 18.0585
ltoes -6.40553
209
root 0.732179 14.9351 3.15697 34.2419 -79.9709 -37.5164
lowerback 12.7015 1.87203 4.41847
upperback 11.1496 2.19626 0.717119
thorax 4.84526 1.09672 -1.91673
lowerneck -6.91147 4.09274 9.69705
upperneck 15.7095 4.71796 -3.81733
head 6.23795 2.50154 -2.45541
rclavicle -1.27222e-014 -4.37326e-015
rhumerus -16.1488 6.12676 -86.9427
rradius 34.3199
rwrist -19.8595
rhand -17.5609 -1.60817
rfingers 7.12502
rthumb 8.69411 -31.4091
lclavicle -1.27222e-014 -4.37326e-015
lhumerus -20.6694 0.887596 85.5117
lradius 45.9339
lwrist 36.3974
lhand -18.2363 25.0566
lfingers 7.12502
lthumb 8.04231 54.8835
rfemur -1.5575 6.81245 32.7862
rtibia 30.1718
rfoot -24.0563 -17.019
rtoes -24.3684
lfemur -33.9683 -4.2834 -9.81575
ltibia 41.1972
lfoot -13.1197 19.3191
ltoes -4.86967
210
root 0.46239 14.909 3.2398 41.0112 -79.9207 -44.2078
lowerback 12.996 1.95335 5.05424
upperback 11.2877 2.33658 0.843073
thorax 4.88436 1.19414 -2.15598
lowerneck -6.81797 4.21186 9.84334
upperneck 15.4313 4.89397 -3.96131
head 6.15337 2.5832 -2.51189
rclavicle 1.98785e-015 -1.55052e-014
rhumerus -15.0554 6.63335 -87.1824
rradius 34.6633
rwrist -20.182
rhand -17.5113 -1.82657
rfingers 7.12502
rthumb 8.74199 -31.6255
lclavicle 1.98785e-015 -1.55052e-014
lhumerus -20.2796 0.717592 85.2321
lradius 45.8453
lwrist 36.4581
lhand -17.9159 24.729
lfingers 7.12502
lthumb 8.35146 54.5439
rfemur -0.159187 6.76715 33.7038
rtibia 29.4135
rfoot -23.8778 -16.8718
rtoes -24.6332
lfemur -34.0461 -6.54905 -7.25699
ltibia 36.5654
lfoot -13.9794 20.7176
ltoes -3.0996
211
root 0.200395 14.8694 3.32574 48.4128 -79.6253 -51.5939
lowerback 13.452 2.0406 5.82279
upperback 11.436 2.5003 1.04953
thorax 4.861 1.30459 -2.39156
lowerneck -6.77512 4.31563 9.91867
upperneck 15.1983 5.04728 -4.06906
head 6.08785 2.65258 -2.54641
rclavicle 1.5704e-014 4.77083e-015
rhumerus -13.9178 7.11041 -87.3566
rradius 34.9538
rwrist -20.5969
rhand -17.4385 -2.07574
rfingers 7.12502
rthumb 8.8122 -31.8718
lclavicle 1.5704e-014 4.77083e-015
lhumerus -19.694 0.418951 85.0174
lradius 45.6398
lwrist 36.3574
lhand -17.7016 24.3114
lfingers 7.12502
lthumb 8.5583 54.118
rfemur 1.04661 6.62592 34.7528
rtibia 29.037
rfoot -23.6242 -16.6757
rtoes -25.0695
lfemur -34.1066 -9.41716 -4.13702
ltibia 32.5493
lfoot -15.6592 22.3021
ltoes -0.849658
212
root -0.0553733 14.8204 3.41562 55.258 -79.1624 -58.4764
lowerback 14.0374 2.12629 6.55239
upperback 11.617 2.66402 1.29522
thorax 4.807 1.40723 -2.56839
lowerneck -6.74221 4.40798 9.93894
upperneck 14.9602 5.18874 -4.16262
head 6.01989 2.71427 -2.56839
rclavicle 3.51849e-014 -2.66371e-014
rhumerus -12.7226 7.57843 -87.46
rradius 35.1933
rwrist -21.1305
rhand -17.343 -2.33468
rfingers 7.12502
rthumb 8.90435 -32.1268
lclavicle 3.51849e-014 -2.66371e-014
lhumerus -18.9006 -0.0132144 84.8633
lradius 45.3367
lwrist 36.1566
lhand -17.6846 23.9606
lfingers 7.12502
lthumb 8.57475 53.7665
rfemur 1.99832 6.33211 35.7159
rtibia 29.1907
rfoot -23.3842 -16.3462
rtoes -25.7237
lfemur -34.1821 -12.6833 -0.794013
ltibia 29.3109
lfoot -17.9479 24.0119
ltoes 1.46091
213
root -0.302723 14.7663 3.50806 61.2723 -78.6325 -64.5421
lowerback 14.7469 2.21639 7.13098
upperback 11.8287 2.82718 1.55562
thorax 4.71532 1.49517 -2.6506
lowerneck -6.71051 4.50181 9.95085
upperneck 14.6978 5.33683 -4.28155
head 5.94551 2.77707 -2.59666
rclavicle -4.39314e-014 -5.56597e-015
rhumerus -11.4508 8.04885 -87.4988
rradius 35.3727
rwrist -21.746
rhand -17.2222 -2.57163
rfingers 7.12502
rthumb 9.02091 -32.3587
lclavicle -4.39314e-014 -5.56597e-015
lhumerus -17.8998 -0.55913 84.7489
lradius 44.962
lwrist 35.8812
lhand -17.8712 23.7973
lfingers 7.12502
lthumb 8.39467 53.6105
rfemur 2.56217 5.9305 36.4931
rtibia 30.0311
rfoot -23.1835 -15.854
rtoes -26.5713
lfemur -34.2718 -15.6137 2.30646
ltibia 26.9287
lfoot -20.2016 25.4287
ltoes 3.7783
214
root -0.543041 14.716 3.60321 66.2426 -78.2043 -69.5307
lowerback 15.5097 2.3153 7.42473
upperback 12.0782 2.97716 1.77039
thorax 4.62057 1.5581 -2.62455
lowerneck -6.64872 4.60452 9.99798
upperneck 14.3725 5.50257 -4.45176
head 5.85019 2.84706 -2.64623
rclavicle -2.06736e-014 8.74653e-015
rhumerus -10.0902 8.53588 -87.4924
rradius 35.4881
rwrist -22.3859
rhand -17.0626 -2.78158
rfingers 7.12502
rthumb 9.17491 -32.562
lclavicle -2.06736e-014 8.74653e-015
lhumerus -16.7074 -1.202 84.6314
lradius 44.547
lwrist 35.5015
lhand -18.1556 23.7627
lfingers 7.12502
lthumb 8.12015 53.5867
rfemur 2.62551 5.43073 36.9023
rtibia 31.6957
rfoot -22.961 -15.183
rtoes -27.6191
lfemur -34.224 -17.291 4.44426
ltibia 25.349
lfoot -21.3857 26.0745
ltoes 5.13946
215
root -0.776817 14.6731 3.70159 70.4504 -77.9611 -73.6764
lowerback 16.281 2.42695 7.40807
upperback 12.357 3.10993 1.90078
thorax 4.53433 1.59546 -2.51567
lowerneck -6.52362 4.72524 10.1273
upperneck 13.9332 5.69749 -4.69023
head 5.71555 2.93136 -2.72988
rclavicle 1.11319e-014 3.06128e-014
rhumerus -8.64706 9.06362 -87.4719
rradius 35.5563
rwrist -22.9847
rhand -16.9062 -2.96828
rfingers 7.12502
rthumb 9.32589 -32.742
lclavicle 1.11319e-014 3.06128e-014
lhumerus -15.3511 -1.94726 84.4562
lradius 44.1434
lwrist 34.9974
lhand -18.4351 23.737
lfingers 7.12502
lthumb 7.85041 53.5712
rfemur 2.06145 4.87897 36.8982
rtibia 34.3044
rfoot -22.5337 -14.376
rtoes -28.8124
lfemur -33.9509 -17.288 5.28723
ltibia 24.4283
lfoot -20.8263 25.7934
ltoes 5.24227
216
root -1.00647 14.6403 3.80537 74.2206 -78.0484 -77.2605
lowerback 16.9931 2.57667 7.0152
upperback 12.6644 3.24185 1.88729
thorax 4.48853 1.61596 -2.34968
lowerneck -6.31503 4.85857 10.3867
upperneck 13.3523 5.91274 -5.01816
head 5.532 3.027 -2.86331
rclavicle -1.90833e-014 -3.77691e-014
rhumerus -7.14091 9.6291 -87.4646
rradius 35.6221
rwrist -23.46
rhand -16.8286 -3.19188
rfingers 7.12502
rthumb 9.40076 -32.9622
lclavicle -1.90833e-014 -3.77691e-014
lhumerus -13.8495 -2.81308 84.1822
lradius 43.7951
lwrist 34.3543
lhand -18.7212 23.7132
lfingers 7.12502
lthumb 7.57424 53.5576
rfemur 0.796028 4.3226 36.3552
rtibia 37.8863
rfoot -21.6453 -13.4583
rtoes -30.0709
lfemur -33.5165 -16.0744 4.95086
ltibia 23.9809
lfoot -18.8219 24.9285
ltoes 4.57983
217
root -1.23047 14.6153 3.91448 77.8768 -78.503 -80.6088
lowerback 17.6901 2.77355 6.25067
upperback 12.9871 3.38266 1.7085
thorax 4.44758 1.62381 -2.15531
lowerneck -6.03375 5.00003 10.7805
upperneck 12.6322 6.13848 -5.42098
head 5.30251 3.13029 -3.04327
rclavicle 1.19271e-015 -3.97569e-016
rhumerus -5.59282 10.2153 -87.4786
rradius 35.7279
rwrist -23.8113
rhand -16.8488 -3.41332
rfingers 7.12502
rthumb 9.38124 -33.1846
lclavicle 1.19271e-015 -3.97569e-016
lhumerus -12.2102 -3.80617 83.7767
lradius 43.5127
lwrist 33.5407
lhand -18.9623 23.4139
lfingers 7.12502
lthumb 7.34159 53.2666
rfemur -1.20464 3.82055 35.2837
rtibia 42.3826
rfoot -20.077 -12.4537
rtoes -31.1359
lfemur -33.0655 -14.2449 3.78597
ltibia 23.8707
lfoot -15.9962 23.7532
ltoes 4.05989
218
root -1.44665 14.5971 4.02845 81.6915 -79.307 -84.0045
lowerback 18.4097 3.01125 5.15454
upperback 13.316 3.5228 1.36941
thorax 4.38576 1.61431 -1.94996
lowerneck -5.68618 5.1338 11.2682
upperneck 11.7772 6.35357 -5.86868
head 5.02675 3.23053 -3.25539
rclavicle 1.19271e-015 -2.74323e-014
rhumerus -4.0172 10.867 -87.4916
rradius 35.9226
rwrist -24.1057
rhand -17.0097 -3.58799
rfingers 7.12502
rthumb 9.22596 -33.3661
lclavicle 1.19271e-015 -2.74323e-014
lhumerus -10.423 -4.91062 83.223
lradius 43.2857
lwrist 32.5378
lhand -19.183 22.7836
lfingers 7.12502
lthumb 7.12855 52.6435
rfemur -3.90827 3.39126 33.7408
rtibia 47.593
rfoot -17.759 -11.3591
rtoes -31.659
lfemur -32.7643 -12.2664 2.11131
ltibia 24.0465
lfoot -12.7509 22.6375
ltoes 3.59805
219
root -1.65052 14.5824 4.14376 85.8722 -80.3569 -87.7169
lowerback 19.2531 3.28688 3.80702
upperback 13.6477 3.65906 0.916946
thorax 4.25557 1.58533 -1.73251
lowerneck -5.31775 5.23124 11.794
upperneck 10.8627 6.51108 -6.27622
head 4.72761 3.30631 -3.46648
rclavicle -2.34566e-014 1.90833e-014
rhumerus -2.42195 11.6015 -87.4593
rradius 36.2521
rwrist -24.4422
rhand -17.2928 -3.6915
rfingers 7.12502
rthumb 8.95277 -33.4815
lclavicle -2.34566e-014 1.90833e-014
lhumerus -8.44462 -6.12206 82.52
lradius 43.0756
lwrist 31.335
lhand -19.4176 21.9586
lfingers 7.12502
lthumb 6.902 51.8261
rfemur -7.20254 3.03535 31.9064
rtibia 53.2426
rfoot -15.0003 -10.2953
rtoes -31.6659
lfemur -32.7189 -10.2432 0.132863
ltibia 24.5709
lfoot -9.50941 21.5458
ltoes 3.41421
